<svg width="771" height="240" viewBox="0 0 771 240" fill="none" xmlns="http://www.w3.org/2000/svg">
<path d="M746.624 172.872C741.728 172.872 738.032 171.816 735.536 169.704C733.136 167.592 731.936 164.328 731.936 159.912C731.936 155.4 733.136 152.088 735.536 149.976C738.032 147.864 741.728 146.808 746.624 146.808C751.616 146.808 755.36 147.864 757.856 149.976C760.352 152.088 761.6 155.4 761.6 159.912C761.6 168.552 756.608 172.872 746.624 172.872Z" fill="white"/>
<path d="M693.039 173.016C685.839 173.016 679.791 172.008 674.895 169.992C670.095 167.88 666.207 165.048 663.231 161.496C660.255 157.848 658.095 153.72 656.751 149.112C655.503 144.504 654.879 139.656 654.879 134.568C654.879 129.096 655.551 123.864 656.895 118.872C658.335 113.88 660.495 109.464 663.375 105.624C666.351 101.688 670.143 98.6159 674.751 96.4079C679.455 94.1039 685.071 92.9519 691.599 92.9519C698.127 92.9519 703.695 94.1039 708.303 96.4079C713.007 98.6159 716.751 101.736 719.535 105.768C722.319 109.8 724.095 114.456 724.863 119.736C725.727 125.016 725.631 130.728 724.575 136.872L669.423 137.736V125.064L706.719 124.344L703.695 131.688C704.271 127.272 704.175 123.576 703.407 120.6C702.735 117.528 701.439 115.224 699.519 113.688C697.599 112.056 694.959 111.24 691.599 111.24C688.047 111.24 685.215 112.152 683.103 113.976C680.991 115.8 679.503 118.392 678.639 121.752C677.775 125.016 677.343 128.904 677.343 133.416C677.343 141.192 678.639 146.856 681.231 150.408C683.823 153.96 687.807 155.736 693.183 155.736C695.487 155.736 697.407 155.448 698.943 154.872C700.479 154.296 701.727 153.48 702.687 152.424C703.647 151.272 704.319 149.928 704.703 148.392C705.087 146.76 705.231 144.936 705.135 142.92L726.447 144.072C726.735 147.24 726.399 150.504 725.439 153.864C724.575 157.224 722.895 160.344 720.399 163.224C717.903 166.104 714.399 168.456 709.887 170.28C705.471 172.104 699.855 173.016 693.039 173.016Z" fill="white"/>
<path d="M615.768 173.016C610.68 173.016 605.928 172.488 601.512 171.432C597.192 170.472 593.4 168.888 590.136 166.68C586.968 164.472 584.52 161.544 582.792 157.896C581.16 154.152 580.488 149.64 580.776 144.36L601.08 142.632C601.272 145.8 601.992 148.44 603.24 150.552C604.488 152.568 606.216 154.056 608.424 155.016C610.632 155.976 613.32 156.456 616.488 156.456C619.464 156.456 622.008 155.976 624.12 155.016C626.328 153.96 627.432 152.232 627.432 149.832C627.432 148.584 627.048 147.576 626.28 146.808C625.512 145.944 624.072 145.176 621.96 144.504C619.944 143.736 616.968 142.872 613.032 141.912C608.136 140.664 603.72 139.416 599.784 138.168C595.848 136.92 592.488 135.432 589.704 133.704C586.92 131.976 584.808 129.864 583.368 127.368C581.928 124.776 581.208 121.608 581.208 117.864C581.208 112.584 582.6 108.12 585.384 104.472C588.264 100.728 592.2 97.8959 597.192 95.9759C602.184 93.9599 607.944 92.9519 614.472 92.9519C620.328 92.9519 625.8 93.8639 630.888 95.6879C635.976 97.5119 639.96 100.488 642.84 104.616C645.816 108.744 646.92 114.216 646.152 121.032L626.28 122.904C626.568 120.12 626.184 117.768 625.128 115.848C624.072 113.832 622.536 112.344 620.52 111.384C618.504 110.328 616.056 109.8 613.176 109.8C609.912 109.8 607.368 110.424 605.544 111.672C603.816 112.824 602.952 114.312 602.952 116.136C602.952 117.576 603.48 118.824 604.536 119.88C605.688 120.84 607.416 121.704 609.72 122.472C612.12 123.144 615.192 123.912 618.936 124.776C622.2 125.448 625.608 126.312 629.16 127.368C632.712 128.424 636.024 129.864 639.096 131.688C642.168 133.416 644.664 135.72 646.584 138.6C648.504 141.48 649.464 145.128 649.464 149.544C649.464 154.248 648.168 158.376 645.576 161.928C642.984 165.48 639.192 168.216 634.2 170.136C629.208 172.056 623.064 173.016 615.768 173.016Z" fill="white"/>
<path d="M524.332 173.016C520.492 173.016 516.844 172.344 513.388 171C509.932 169.656 507.1 167.496 504.892 164.52C502.684 161.448 501.58 157.368 501.58 152.28C501.58 147.576 502.492 143.784 504.316 140.904C506.14 137.928 508.588 135.576 511.66 133.848C514.732 132.024 518.092 130.68 521.74 129.816C525.388 128.856 528.988 128.04 532.54 127.368C537.532 126.408 541.276 125.64 543.772 125.064C546.268 124.488 547.948 123.816 548.812 123.048C549.772 122.28 550.252 121.224 550.252 119.88C550.252 117.096 549.196 114.984 547.084 113.544C545.068 112.104 542.38 111.384 539.02 111.384C536.908 111.384 534.796 111.768 532.684 112.536C530.572 113.304 528.844 114.696 527.5 116.712C526.156 118.632 525.532 121.416 525.628 125.064L504.892 123.624C504.7 117.576 505.612 112.584 507.628 108.648C509.644 104.616 512.38 101.496 515.836 99.2879C519.388 96.9839 523.228 95.3519 527.356 94.3919C531.58 93.4319 535.756 92.9519 539.884 92.9519C547.468 92.9519 553.708 94.3919 558.604 97.2719C563.5 100.056 567.1 104.136 569.404 109.512C571.804 114.792 573.004 121.224 573.004 128.808V142.344C573.004 145.512 573.004 148.728 573.004 151.992C573.004 155.16 573.004 158.328 573.004 161.496C573.004 164.664 573.004 167.832 573.004 171H552.844C552.844 167.544 552.844 164.04 552.844 160.488C552.844 156.936 552.844 153.192 552.844 149.256H551.98C551.596 153.576 550.156 157.56 547.66 161.208C545.26 164.76 542.044 167.64 538.012 169.848C534.076 171.96 529.516 173.016 524.332 173.016ZM533.98 156.024C535.612 156.024 537.34 155.736 539.164 155.16C541.084 154.488 542.86 153.432 544.492 151.992C546.22 150.552 547.612 148.584 548.668 146.088C549.724 143.496 550.252 140.328 550.252 136.584V133.128L554.14 132.696C553.372 133.944 552.076 134.952 550.252 135.72C548.524 136.488 546.556 137.112 544.348 137.592C542.14 137.976 539.884 138.408 537.58 138.888C535.372 139.272 533.308 139.848 531.388 140.616C529.468 141.288 527.884 142.248 526.636 143.496C525.484 144.648 524.908 146.28 524.908 148.392C524.908 150.888 525.772 152.808 527.5 154.152C529.324 155.4 531.484 156.024 533.98 156.024Z" fill="white"/>
<path d="M467.277 173.016C462.957 173.016 459.165 172.056 455.901 170.136C452.637 168.216 449.901 165.384 447.693 161.64C445.581 157.8 443.997 153.096 442.941 147.528H441.933V171H421.629V144.216V70.2H444.957V92.52C444.957 95.112 444.813 97.896 444.525 100.872C444.333 103.848 443.997 106.92 443.517 110.088C443.133 113.256 442.653 116.472 442.077 119.736H443.373C444.237 113.4 445.773 108.264 447.981 104.328C450.189 100.392 453.021 97.512 456.477 95.688C459.933 93.864 463.869 92.952 468.285 92.952C473.949 92.952 478.845 94.392 482.973 97.272C487.197 100.152 490.461 104.472 492.765 110.232C495.069 115.992 496.221 123.24 496.221 131.976C496.221 141.288 494.925 148.968 492.333 155.016C489.837 161.064 486.381 165.576 481.965 168.552C477.645 171.528 472.749 173.016 467.277 173.016ZM459.069 154.44C461.949 154.44 464.397 153.528 466.413 151.704C468.429 149.784 469.965 147.288 471.021 144.216C472.077 141.048 472.605 137.592 472.605 133.848C472.605 130.104 472.125 126.6 471.165 123.336C470.205 120.072 468.717 117.432 466.701 115.416C464.685 113.4 462.141 112.392 459.069 112.392C457.725 112.392 456.333 112.632 454.893 113.112C453.549 113.592 452.253 114.36 451.005 115.416C449.853 116.376 448.797 117.672 447.837 119.304C446.877 120.84 446.109 122.76 445.533 125.064C444.957 127.272 444.669 129.816 444.669 132.696V133.704C444.669 137.256 445.053 140.328 445.821 142.92C446.685 145.512 447.789 147.672 449.133 149.4C450.477 151.128 452.013 152.424 453.741 153.288C455.469 154.056 457.245 154.44 459.069 154.44Z" fill="white"/>
<path d="M340.77 171V127.944V94.9679H360.498V125.928H361.65C362.226 118.44 363.474 112.296 365.394 107.496C367.314 102.6 370.05 98.9519 373.602 96.5519C377.154 94.1519 381.666 92.9519 387.138 92.9519C395.394 92.9519 401.586 95.6879 405.714 101.16C409.938 106.632 412.05 114.792 412.05 125.64V171H388.722V128.664C388.722 123.48 387.906 119.592 386.274 117C384.738 114.408 382.242 113.112 378.786 113.112C375.906 113.112 373.362 114.12 371.154 116.136C368.946 118.152 367.218 121.416 365.97 125.928C364.722 130.44 364.098 136.488 364.098 144.072V171H340.77Z" fill="white"/>
<path d="M259.91 171V127.944V94.9679H279.638V125.928H280.79C281.366 118.44 282.614 112.296 284.534 107.496C286.454 102.6 289.19 98.9519 292.742 96.5519C296.294 94.1519 300.806 92.9519 306.278 92.9519C314.534 92.9519 320.726 95.6879 324.854 101.16C329.078 106.632 331.19 114.792 331.19 125.64V171H307.862V128.664C307.862 123.48 307.046 119.592 305.414 117C303.878 114.408 301.382 113.112 297.926 113.112C295.046 113.112 292.502 114.12 290.294 116.136C288.086 118.152 286.358 121.416 285.11 125.928C283.862 130.44 283.238 136.488 283.238 144.072V171H259.91Z" fill="white"/>
<path d="M226.16 171V94.9681H249.488V171H226.16ZM237.68 89.4961C233.264 89.4961 229.856 88.5841 227.456 86.7601C225.152 84.8401 224 82.1041 224 78.5521C224 74.9041 225.152 72.1681 227.456 70.3441C229.856 68.4241 233.264 67.4641 237.68 67.4641C242.192 67.4641 245.6 68.4241 247.904 70.3441C250.304 72.2641 251.504 75.0001 251.504 78.5521C251.504 82.0081 250.304 84.6961 247.904 86.6161C245.6 88.5361 242.192 89.4961 237.68 89.4961Z" fill="white"/>
<g clip-path="url(#clip0_474_2077)">
<path d="M100.832 30C101.513 30.1031 131.803 51.8641 134.506 53.7922L194.88 96.8231L176.654 109.772L129.144 75.8812L114.627 65.4017C110.944 62.7386 107.241 59.9884 103.388 57.5849L103.347 136.296L113.372 129.218C117.558 126.265 121.726 123.285 125.875 120.281C123.116 118.367 120.404 116.387 117.609 114.525L117.595 88.4135C122.214 91.385 127.56 95.4012 132.133 98.6532L162.343 120.26L101.559 163.717L82.5332 150.344C82.8118 114.557 82.8204 78.7671 82.5592 42.9791C88.6262 38.8438 94.7813 34.2554 100.832 30Z" fill="white"/>
<path d="M65.701 87.5462C65.8385 88.2749 65.7802 92.4825 65.7784 93.4146L65.7605 106.836L65.7637 158.681L101.551 184.063L176.652 130.479L195 143.129C188.6 147.454 181.614 152.674 175.31 157.219L101.69 210C99.5762 208.734 96.7401 206.628 94.6772 205.184L82.5599 196.699L45.0684 170.399L45.0712 99.8876L65.701 87.5462Z" fill="white"/>
<path d="M65.5159 53.7488C66.0394 54.4578 65.7515 72.6374 65.7483 74.9625C59.0791 78.8329 52.1483 83.2319 45.5322 86.9261C44.8043 84.0355 45.0318 80.3531 45.04 77.2927L45.075 66.5466C51.9443 62.3706 58.7585 58.1043 65.5159 53.7488Z" fill="white"/>
</g>
<defs>
<clipPath id="clip0_474_2077">
<rect width="150" height="180" fill="white" transform="translate(45 30)"/>
</clipPath>
</defs>
</svg>
